<svg id="Layer_1" data-name="Layer 1" xmlns="http://www.w3.org/2000/svg" viewBox="0 0 865.63 381.86"><defs><style>.cls-1{fill:#fff;}.cls-2{fill:#ed2b2c;}</style></defs><path class="cls-1" d="M420.06,81.52q25.38,0,42.28,16.65t16.9,41.74q0,25.1-16.9,41.74T420.06,198.3H375V81.52Zm-.16,102.24q18.59,0,31-12.52t12.44-31.33q0-18.8-12.44-31.32t-31-12.53H390.56v87.7Z"/><path class="cls-1" d="M571.15,112H585.7V198.3H571.15V181.86A39.91,39.91,0,0,1,557,195.41a38.45,38.45,0,0,1-19.38,5q-18.42,0-30.78-13t-12.36-32.27q0-19.31,12.36-32.23T537.59,110A38.73,38.73,0,0,1,557,114.87a39.63,39.63,0,0,1,14.18,13.51Zm-30.83,74.3q13.23,0,22-8.89t8.8-22.27q0-13.4-8.8-22.27t-22-8.89q-13.4,0-22.19,8.89t-8.8,22.27q0,13.4,8.8,22.27T540.32,186.32Z"/><path class="cls-1" d="M731.74,112h16L715,198.3H699.75l-25.2-69.59L649.34,198.3H634.05L601.23,112h16.45L642,181l25.29-69h15l25.05,68.51Z"/><path class="cls-1" d="M829.76,112h14.55V198.3H829.76V181.86a39.88,39.88,0,0,1-14.17,13.55,38.45,38.45,0,0,1-19.38,5q-18.44,0-30.79-13t-12.36-32.27q0-19.31,12.36-32.23T796.21,110a38.73,38.73,0,0,1,19.38,4.92,39.6,39.6,0,0,1,14.17,13.51Zm-30.83,74.3q13.23,0,22-8.89t8.8-22.27q0-13.4-8.8-22.27t-22-8.89q-13.38,0-22.19,8.89t-8.8,22.27q0,13.4,8.8,22.27T798.93,186.32Z"/><path class="cls-1" d="M422.11,234.09h12.28v55.28h-9.54V250.09l-17.13,39.28H401l-17.1-39.08v39.08h-9.5V234.09h12.4l17.72,40.61Z"/><path class="cls-1" d="M506.48,289.37h-12l-22.54-24.1v24.1h-9.5V234.09h9.5v23.48l22.22-23.48H506l-25.23,27.39Z"/><path class="cls-1" d="M571.12,282.13q-8.32,8.22-20.75,8.22t-20.75-8.22a29.14,29.14,0,0,1,0-40.8q8.32-8.21,20.75-8.21t20.75,8.21a29.12,29.12,0,0,1,0,40.8Zm-20.77-1a18.63,18.63,0,0,0,13.79-5.58,19.37,19.37,0,0,0-13.79-33.19,18.53,18.53,0,0,0-13.69,5.55,20.06,20.06,0,0,0,0,27.64A18.48,18.48,0,0,0,550.35,281.12Z"/><path class="cls-1" d="M641.92,234.09h9.54v55.28h-9.7L614.1,250.29v39.08h-9.5V234.09h9.66l27.66,39.09Z"/><path class="cls-1" d="M726.44,282.13q-8.34,8.22-20.76,8.22t-20.75-8.22a29.14,29.14,0,0,1,0-40.8,28.4,28.4,0,0,1,20.75-8.21q12.42,0,20.76,8.21a29.14,29.14,0,0,1,0,40.8Zm-20.77-1a18.62,18.62,0,0,0,13.78-5.58,19.37,19.37,0,0,0-13.78-33.19A18.54,18.54,0,0,0,692,247.9a20.09,20.09,0,0,0,0,27.64A18.49,18.49,0,0,0,705.67,281.12Z"/><path class="cls-1" d="M797.23,234.09h9.54v55.28h-9.7l-27.66-39.08v39.08h-9.5V234.09h9.66l27.66,39.09Z"/><path class="cls-1" d="M834.81,289.37V234.09h9.5v55.28Z"/><path class="cls-2" d="M322.71,187.77c0,83-67.58,150.4-150.67,150.4S21.32,270.73,21.32,187.77,89,37.42,172,37.42,322.71,104.86,322.71,187.77Z"/><path class="cls-1" d="M245.73,250.82a28.56,28.56,0,0,1-4.37,4.42,0,0,0,0,1,0,0c-2.36,1.56-4.81,3-7.29,4.45-.07,0-.13.07-.2.1a123,123,0,0,1-46.68,14.85,124.22,124.22,0,0,1-13.73.73,122.31,122.31,0,0,1-97-47.57,9.47,9.47,0,0,1,2.46-13.68h0a9.61,9.61,0,0,1,12.83,2.25,103.6,103.6,0,0,0,93.35,39.29,107.42,107.42,0,0,0,15.26-2.8,104.06,104.06,0,0,0,26.29-11s.1,0,.13-.07a10.46,10.46,0,0,0,2.13-1.3l.07-.06A9.39,9.39,0,0,0,230.5,239a10.68,10.68,0,0,0,2.54-6,11,11,0,0,0-10.92-12c-.39,0-.8,0-1.21.06a11.44,11.44,0,0,0-6.15,2.77,82.54,82.54,0,0,1-22.91,8.93,86.87,86.87,0,0,1-9.15,1.53,82.7,82.7,0,0,1-21.67-.44,9.52,9.52,0,0,1-7.53-12.31h0A9.51,9.51,0,0,1,164,215a63.4,63.4,0,0,0,39.09-6.52,58.39,58.39,0,0,0,6.89-4.2,30.4,30.4,0,0,1,26.76,1.21,30.15,30.15,0,0,1,9,45.34Z"/><polygon class="cls-1" points="150.65 126.06 150.65 100.55 177.43 100.55 177.43 126.06 204.12 126.06 204.12 152.76 177.43 152.76 177.43 179.55 150.65 179.55 150.65 152.76 128.06 152.76 128.06 126.06 150.65 126.06"/></svg>