<?xml version="1.0" encoding="utf-8"?>
<!-- Generator: Adobe Illustrator 25.2.1, SVG Export Plug-In . SVG Version: 6.00 Build 0)  -->
<svg version="1.1" id="Layer_1" xmlns="http://www.w3.org/2000/svg" xmlns:xlink="http://www.w3.org/1999/xlink" x="0px" y="0px"
	 viewBox="0 0 114 50" style="enable-background:new 0 0 114 50;" xml:space="preserve">
<style type="text/css">
	.st0{fill:#231F20;}
	.st1{fill:#ED2B2C;}
	.st2{fill:#FFFFFF;}
</style>
<path class="st0" d="M53.5,11.8c2,0,3.6,0.6,4.9,1.9c1.3,1.3,2,2.9,2,4.9c0,1.9-0.7,3.6-2,4.9c-1.3,1.3-3,1.9-4.9,1.9h-5.2V11.8
	H53.5z M53.5,23.7c1.4,0,2.6-0.5,3.6-1.5c1-1,1.4-2.2,1.4-3.7c0-1.5-0.5-2.7-1.4-3.6c-1-1-2.2-1.5-3.6-1.5h-3.4v10.2L53.5,23.7z"/>
<path class="st0" d="M71.1,15.4h1.7v10.1h-1.7v-1.9c-0.4,0.7-1,1.2-1.6,1.6c-0.7,0.4-1.5,0.6-2.3,0.6c-1.4,0-2.6-0.5-3.6-1.5
	c-1-1-1.4-2.3-1.4-3.8c0-1.5,0.5-2.8,1.4-3.8c1-1,2.2-1.5,3.6-1.5c0.8,0,1.6,0.2,2.3,0.6c0.7,0.4,1.2,0.9,1.7,1.6L71.1,15.4z
	 M67.5,24c1,0,1.9-0.3,2.6-1c0.7-0.7,1-1.6,1-2.6c0-1-0.3-1.9-1-2.6c-0.7-0.7-1.5-1-2.6-1c-1,0-1.9,0.3-2.6,1s-1,1.6-1,2.6
	c0,1,0.3,1.9,1,2.6C65.6,23.7,66.5,24,67.5,24L67.5,24z"/>
<path class="st0" d="M89.8,15.4h1.9l-3.8,10.1h-1.8l-2.9-8.1l-2.9,8.1h-1.8l-3.8-10.1h1.9l2.8,8l2.9-8h1.7l2.9,8L89.8,15.4z"/>
<path class="st0" d="M101.3,15.4h1.7v10.1h-1.7v-1.9c-0.4,0.7-1,1.2-1.7,1.6c-0.7,0.4-1.5,0.6-2.3,0.6c-1.4,0-2.6-0.5-3.6-1.5
	c-1-1-1.4-2.3-1.4-3.8c0-1.5,0.5-2.8,1.4-3.8c1-1,2.2-1.5,3.6-1.5c0.8,0,1.6,0.2,2.3,0.6c0.7,0.4,1.2,0.9,1.7,1.6V15.4z M97.7,24
	c1,0,1.9-0.3,2.6-1c0.7-0.7,1-1.6,1-2.6c0-1-0.3-1.9-1-2.6c-0.7-0.7-1.5-1-2.6-1c-1,0-1.9,0.3-2.6,1s-1,1.6-1,2.6c0,1,0.3,1.9,1,2.6
	C95.8,23.7,96.6,24,97.7,24L97.7,24z"/>
<path class="st0" d="M53.8,29.6h1.4V36h-1.1v-4.6l-2,4.6h-0.8l-2-4.6V36h-1.1v-6.4h1.4l2.1,4.7L53.8,29.6z"/>
<path class="st0" d="M63.6,36h-1.4l-2.6-2.8V36h-1.1v-6.4h1.1v2.7l2.6-2.7h1.4l-2.9,3.2L63.6,36z"/>
<path class="st0" d="M71.1,35.2c-0.6,0.6-1.5,1-2.4,1c-1,0-1.8-0.3-2.4-1c-1.3-1.3-1.3-3.4,0-4.8c0.6-0.6,1.5-1,2.4-1
	c1,0,1.8,0.3,2.4,1C72.4,31.8,72.4,33.9,71.1,35.2z M68.7,35.1c0.6,0,1.2-0.2,1.6-0.7c0.9-0.9,0.9-2.3,0-3.2c-0.4-0.4-1-0.7-1.6-0.7
	c-0.6,0-1.2,0.2-1.6,0.6c-0.9,0.9-0.9,2.3,0,3.2C67.5,34.9,68.1,35.1,68.7,35.1L68.7,35.1z"/>
<path class="st0" d="M79.4,29.6h1.1V36h-1.1l-3.2-4.6V36H75v-6.4h1.1l3.2,4.6L79.4,29.6z"/>
<path class="st0" d="M89.2,35.2c-0.6,0.6-1.5,1-2.4,1s-1.8-0.3-2.4-1c-1.3-1.3-1.3-3.4,0-4.8c0.6-0.6,1.5-1,2.4-1c1,0,1.8,0.3,2.4,1
	C90.5,31.8,90.5,33.9,89.2,35.2z M86.8,35.1c0.6,0,1.2-0.2,1.6-0.7c0.9-0.9,0.9-2.3,0-3.2c-0.4-0.4-1-0.7-1.6-0.7
	c-0.6,0-1.2,0.2-1.6,0.6c-0.9,0.9-0.9,2.3,0,3.2C85.6,34.9,86.2,35.1,86.8,35.1L86.8,35.1z"/>
<path class="st0" d="M97.5,29.6h1.1V36h-1.1l-3.2-4.6V36h-1.1v-6.4h1.1l3.2,4.6L97.5,29.6z"/>
<path class="st0" d="M101.9,36v-6.4h1.1V36H101.9z"/>
<path class="st1" d="M42.2,24.2c0,9.7-7.9,17.5-17.6,17.5S7.1,33.9,7.1,24.2S15,6.7,24.6,6.7S42.2,14.5,42.2,24.2z"/>
<path class="st2" d="M33.2,31.5c-0.2,0.2-0.3,0.4-0.5,0.5l0,0c-0.3,0.2-0.6,0.3-0.8,0.5c0,0,0,0,0,0c-1.7,0.9-3.5,1.5-5.4,1.7
	c-0.5,0.1-1.1,0.1-1.6,0.1c-4.4,0-8.6-2-11.3-5.5c-0.4-0.5-0.3-1.2,0.2-1.5c0,0,0,0,0.1,0l0,0c0.5-0.3,1.1-0.2,1.5,0.3
	c2.6,3.3,6.7,5,10.9,4.6c0.6-0.1,1.2-0.2,1.8-0.3c1.1-0.3,2.1-0.7,3.1-1.3c0,0,0,0,0,0c0.1,0,0.2-0.1,0.2-0.2l0,0
	c0.1,0,0.1-0.1,0.2-0.2c0.2-0.2,0.3-0.4,0.3-0.7c0.1-0.7-0.5-1.3-1.2-1.4c0,0-0.1,0-0.1,0c0,0-0.1,0-0.1,0c-0.3,0-0.5,0.1-0.7,0.3
	c-0.8,0.5-1.7,0.8-2.7,1c-0.4,0.1-0.7,0.1-1.1,0.2c-0.8,0.1-1.7,0.1-2.5-0.1c-0.6-0.1-1-0.7-0.9-1.3c0-0.1,0-0.1,0-0.2l0,0
	c0.2-0.5,0.7-0.8,1.2-0.8c1.6,0.2,3.2,0,4.6-0.8c0.3-0.1,0.5-0.3,0.8-0.5c1-0.4,2.2-0.4,3.1,0.1c1.7,0.9,2.3,3.1,1.4,4.8
	C33.5,31.2,33.3,31.4,33.2,31.5L33.2,31.5z"/>
<polygon class="st2" points="22.1,17 22.1,14 25.3,14 25.3,17 28.4,17 28.4,20.1 25.3,20.1 25.3,23.2 22.1,23.2 22.1,20.1 
	19.5,20.1 19.5,17 "/>
</svg>
